<svg
  xmlns="http://www.w3.org/2000/svg"
  width="83.07"
  height="29.721"
  viewBox="0 0 83.07 29.721"
  overflow="visible"
  xml:space="preserve"
>
  <g fill="#3C5343">
    <path d="M18.712 0H.636A.636.636 0 0 0 0 .636v28.449a.635.635 0 0 0 .636.637h18.077a.637.637 0 0 0 .636-.637V.636A.637.637 0 0 0 18.712 0zM.635.636h1.734l-.007.008c-.586.552-1.183 1.117-1.727 1.738V.636zm0 2.621c.627-.808 1.379-1.519 2.114-2.211l.229-.218.204-.192h1.056c-.498.49-.996.984-1.484 1.479-.855.867-1.473 1.831-1.835 2.866a4.929 4.929 0 0 0-.284 1.557V3.257zm0 10.816c.38.242.757.491 1.124.749.881.619 1.65 1.481 2.285 2.561.493.836.546 1.75.163 2.791-.401 1.09-.965 2.023-1.675 2.773-.308.324-.742.617-1.292.871-.188.086-.396.15-.604.207l-.001-9.952zm0 10.531c.28-.072.566-.154.838-.279.614-.283 1.106-.617 1.465-.994.762-.805 1.365-1.801 1.793-2.965.445-1.207.377-2.277-.205-3.268-.676-1.148-1.499-2.067-2.446-2.734-.47-.33-.956-.646-1.444-.952v-1.949c.46.466.967.885 1.487 1.301C3.779 14.09 5.11 15.377 6.189 16.7c.518.635.796 1.297.826 1.967.028.633-.221 1.242-.44 1.703-.996 2.082-2.067 3.824-3.275 5.324-.336.416-.734.803-1.121 1.178-.164.16-.335.326-.499.492l-.222.225c-.269.271-.544.551-.822.824V24.604zm.106 4.48c.382-.361.753-.738 1.116-1.107l.22-.223c.16-.162.328-.326.491-.484.397-.385.81-.785 1.166-1.227 1.234-1.533 2.329-3.311 3.344-5.434.248-.52.528-1.213.495-1.969-.036-.793-.356-1.566-.951-2.295-1.105-1.352-2.463-2.667-4.15-4.019-.661-.529-1.3-1.062-1.836-1.688V6.674c.013.861.268 1.712.766 2.545.511.854 1.206 1.628 2.188 2.437.47.385.917.796 1.337 1.185 1.139 1.056 2.336 2.192 3.349 3.479.497.633.799 1.344.895 2.115.022.18-.03.4-.082.615-.019.074-.036.15-.052.225-.163.785-.6 1.479-1.021 2.15l-.015.025-.127.203c-.384.617-.78 1.238-1.164 1.842a225.45 225.45 0 0 0-1.041 1.641c-.72 1.154-1.627 2.203-2.505 3.219l-.042.049c-.192.223-.377.451-.557.684H.741v-.004zm2.537 0c.088-.107.176-.213.266-.316l.043-.051c.891-1.031 1.813-2.096 2.556-3.287.342-.545.693-1.098 1.034-1.631l.004-.006c.385-.604.782-1.225 1.168-1.846.044-.072.09-.146.136-.217l.005-.01c.447-.715.91-1.451 1.093-2.334l.048-.209c.061-.25.13-.533.094-.816a4.767 4.767 0 0 0-1.011-2.389c-1.037-1.319-2.252-2.474-3.408-3.544-.425-.394-.88-.811-1.361-1.206-.931-.766-1.587-1.494-2.064-2.291C1.146 7.705 1 6.438 1.444 5.164c.335-.956.91-1.851 1.706-2.657.618-.628 1.252-1.254 1.882-1.872H6.31c-.375.324-.695.624-.978.918-.666.696-1.421 1.521-1.954 2.512-.85 1.581-.807 3.119.127 4.572.562.874 1.292 1.599 1.932 2.193 1.32 1.226 2.555 2.495 3.588 3.578a16.02 16.02 0 0 1 1.513 1.88c.484.688.751 1.438.793 2.23.042.773-.206 1.545-.758 2.361-.307.451-.647.895-.981 1.33-.267.346-.542.705-.801 1.07l-.033.045c-.721 1.018-1.467 2.07-2.141 3.148-.588.939-1.263 1.83-1.885 2.609H3.276h.002zm6.311 0c.062-.09.124-.184.186-.273.227-.334.469-.6.724-.787.104-.076.194-.117.258-.117.014 0 .025.002.037.004.058.021.14.125.196.355a1.7 1.7 0 0 0 .058.182l.007.02c-.011.146-.016.293-.021.434a12.24 12.24 0 0 1-.007.184H9.589zm1.996 0 .006-.166c.006-.145.011-.293.022-.439v-.035a.282.282 0 0 0-.014-.107c-.009-.025-.019-.051-.026-.076a1.25 1.25 0 0 1-.042-.127c-.122-.498-.366-.682-.549-.748-.251-.09-.525-.025-.816.189a3.786 3.786 0 0 0-.853.922l-.397.588H7.415c.06-.088.12-.178.178-.268l.222-.336.009-.016c.733-1.115 1.492-2.27 2.536-3.129.582-.48 1.251-.949 2.103-1.473.153-.094.24-.113.285-.113.017 0 .026.002.032.006.027.008.1.057.186.279l-.022.324c-.017.24-.036.512-.05.775-.019.365-.037.736-.054 1.096l-.002.051c-.029.604-.059 1.23-.097 1.844-.019.309-.04.629-.063.959h-1.093zm7.128 0h-.429c0-.465.033-.939.071-1.424.039-.49.159-.941.356-1.348l.002 2.772zm0-3.798-.034.045c-.513.639-.81 1.406-.879 2.285-.039.498-.075.984-.074 1.469h-1.147c.009-.49.019-.994.049-1.488.074-1.188.466-2.217 1.164-3.057.307-.369.608-.652.922-.863v1.609zm0-2.262c-.473.252-.912.629-1.351 1.158-.775.934-1.21 2.07-1.293 3.379a35.532 35.532 0 0 0-.051 1.523h-.912c.008-.1.017-.199.024-.299.024-.273.044-.549.062-.816.038-.564.077-1.146.174-1.703.278-1.607.873-2.719 1.869-3.496a5.174 5.174 0 0 1 1.477-.813v1.068l.001-.001zm0-1.656a5.693 5.693 0 0 0-1.82.963c-1.112.867-1.772 2.088-2.075 3.84-.102.584-.141 1.182-.18 1.758l.05.004v.006l-.05-.002c-.019.264-.036.535-.06.799-.011.117-.019.232-.028.35h-1.311c.022-.318.042-.627.061-.926.038-.627.068-1.264.099-1.881.017-.365.036-.742.055-1.115.014-.256.033-.527.05-.766a22.673 22.673 0 0 0 .024-.389.277.277 0 0 0-.016-.113c-.083-.234-.229-.557-.543-.668-.229-.08-.49-.027-.795.16a18.986 18.986 0 0 0-2.165 1.516c-1.109.914-1.893 2.105-2.648 3.256l-.23.348c-.126.191-.255.383-.386.576h-1.36a27.334 27.334 0 0 0 1.667-2.34c.666-1.066 1.408-2.111 2.125-3.123l.033-.047c.252-.355.525-.711.792-1.059.335-.436.68-.887.995-1.352.616-.91.893-1.785.845-2.672a4.718 4.718 0 0 0-.886-2.497c-.555-.788-1.051-1.405-1.562-1.938-1.038-1.087-2.279-2.366-3.609-3.6-.617-.572-1.319-1.269-1.85-2.095-.826-1.286-.862-2.65-.107-4.056.502-.935 1.232-1.73 1.874-2.402.378-.395.826-.8 1.401-1.27h2.552c-.82.249-1.498.722-2.061 1.167-.843.664-1.468 1.375-1.908 2.174-.425.767-.632 1.472-.632 2.154 0 .036 0 .071.002.106.024.759.303 1.485.85 2.217.411.55.908 1.033 1.389 1.501.212.207.432.42.64.635.201.209.406.419.604.622.454.466.926.947 1.37 1.435a45.338 45.338 0 0 1 1.97 2.27c1.071 1.34 1.758 2.833 2.041 4.435.044.246.066.504.087.754.019.217.038.438.07.658.039.268.119.596.386.771.13.086.276.115.418.115.143 0 .286-.031.4-.063.687-.184 1.383-.377 2.058-.564l1.373-.379v.725l.001.002zm0-4.19a2.062 2.062 0 0 1-1-.891c-.118-.203-.158-.438-.104-.599.025-.074.065-.122.125-.147.256-.106.577-.11.802-.096.058.004.117.011.177.016v1.717zm0-2.278c-.047-.004-.093-.01-.139-.013-.284-.02-.698-.012-1.057.138a.788.788 0 0 0-.438.483 1.04 1.04 0 0 0-.054.34c0 .239.069.488.203.716.343.592.84.996 1.483 1.209v.77c-.084 0-.167 0-.25-.004-.901-.014-1.627-.461-2.158-1.326-.429-.701-.878-1.456-1.259-2.224-.864-1.748-2.134-3.112-3.583-4.59-.389-.396-.805-.775-1.209-1.146a25.455 25.455 0 0 1-1.354-1.298c-.938-.992-1.037-2.194-.26-3.14.286-.347.68-.563 1.054-.572.312-.008.608.126.854.392.6.649 1.021 1.439 1.431 2.206.077.146.158.296.237.442.302.554.59 1.13.87 1.688.301.601.612 1.223.942 1.823.774 1.404 1.968 2.426 3.548 3.038.372.144.755.261 1.137.367v.699l.002.002zm0-1.279c-.316-.091-.633-.19-.936-.309-1.454-.563-2.551-1.501-3.261-2.787a48.96 48.96 0 0 1-.933-1.804c-.281-.561-.571-1.141-.879-1.704l-.236-.44c-.425-.795-.863-1.618-1.512-2.32-.357-.388-.8-.585-1.279-.571-.532.014-1.082.304-1.468.776-.428.519-.654 1.121-.654 1.738 0 .75.324 1.49.938 2.139.443.468.923.906 1.387 1.331.396.361.806.735 1.184 1.12 1.415 1.443 2.654 2.772 3.481 4.446.391.787.847 1.555 1.283 2.268.637 1.041 1.521 1.576 2.625 1.594.087.002.173.002.259.002v.963c-.496.135-.995.273-1.48.408l-.042.012c-.672.188-1.365.379-2.052.564-.254.066-.343.035-.368.018-.042-.027-.101-.117-.14-.385a10.481 10.481 0 0 1-.066-.625 8.88 8.88 0 0 0-.094-.805c-.3-1.697-1.023-3.273-2.154-4.687a47.352 47.352 0 0 0-1.994-2.298 61.528 61.528 0 0 0-1.383-1.447l-.603-.62c-.216-.222-.447-.448-.65-.647-.466-.453-.948-.922-1.332-1.436-.5-.67-.744-1.319-.744-1.984 0-.585.184-1.203.563-1.89.405-.731.983-1.387 1.766-2.005.596-.47 1.322-.973 2.198-1.151.382-.078.678-.034.956.146.393.251.556.648.744 1.109l.046.111c.121.295.243.596.36.887.303.747.615 1.52.963 2.264.32.685.679 1.359 1.024 2.013.192.362.391.737.58 1.107.382.75.865 1.614 1.55 2.342a6.888 6.888 0 0 0 2.352 1.633v.924zm0-1.533a6.297 6.297 0 0 1-1.945-1.403c-.636-.676-1.094-1.498-1.458-2.213-.193-.377-.392-.752-.586-1.12a45.47 45.47 0 0 1-1.01-1.982c-.342-.732-.651-1.497-.951-2.236-.119-.293-.24-.595-.363-.892l-.045-.108c-.195-.48-.419-1.023-.96-1.37a1.659 1.659 0 0 0-.238-.128h3.209c-.003.026-.005.055-.009.081-.069.641-.142 1.303-.085 1.979.05.6.119 1.235.372 1.84l.335.806c.512 1.232 1.04 2.506 1.627 3.73.491 1.024 1.198 1.828 2.107 2.401v.615zm0-4.534a2.132 2.132 0 0 1-.035-.143c-.093-.438-.079-.82.035-1.135v1.278zm0-2.24c-.426.37-.655.905-.655 1.554 0 .209.024.432.073.659.108.507.328.929.582 1.303v.479a2 2 0 0 1-.258-.264c-1.104-1.404-1.502-3.106-1.218-5.206.08-.598.449-.986 1.095-1.155a.998.998 0 0 1 .382-.015l-.001 2.645zm0-3.207a1.497 1.497 0 0 0-.523.036c-.861.227-1.396.802-1.507 1.62-.063.461-.094.91-.094 1.335 0 1.667.467 3.071 1.427 4.291.197.251.448.446.696.631v.838a5.222 5.222 0 0 1-1.648-2.008c-.582-1.213-1.107-2.479-1.617-3.708l-.335-.805c-.225-.537-.288-1.127-.335-1.687-.052-.628.017-1.265.085-1.881l.015-.137h3.835v1.473l.001.002zM23.495 13.36c-.282 0-.44-.158-.44-.44V4.599c0-.283.158-.44.44-.44h1.757c3.749 0 5.29 1.429 5.29 4.595 0 3.167-1.541 4.607-5.29 4.607h-1.757zm1.785-.952c2.988 0 4.229-1.087 4.229-3.662s-1.241-3.645-4.236-3.645h-1.192v7.307h1.199zM32.278 13.361c-.283 0-.44-.158-.44-.44V4.6c0-.283.157-.44.44-.44h5.041c.283 0 .441.157.441.44v.07c0 .282-.158.44-.441.44h-4.455v3.11h4.227c.283 0 .44.157.44.44v.042c0 .283-.157.435-.44.435h-4.227v3.272h4.455c.283 0 .441.157.441.44v.07c0 .282-.158.44-.441.44l-5.041.002zM39.209 13.36c-.283 0-.441-.158-.441-.44V4.599c0-.283.158-.44.441-.44h1.896c2.842 0 4.299.686 4.299 3.047 0 2.36-1.457 3.046-4.291 3.046h-1.318v2.668c0 .282-.157.44-.44.44h-.146zm2.013-4.067c2.006 0 3.142-.378 3.142-2.103s-1.136-2.095-3.142-2.095h-1.428v4.197h1.428zM53.415 12.847c.125.303-.007.513-.329.513h-.189a.527.527 0 0 1-.515-.342l-.72-1.698H46.58l-.719 1.698a.517.517 0 0 1-.512.342h-.176c-.33 0-.468-.211-.343-.513l3.644-8.348a.517.517 0 0 1 .514-.342h.265c.243 0 .414.111.514.342l3.648 8.348zm-4.296-7.528-2.17 5.13h4.345l-2.175-5.13zM60.704 12.821c.237.343.146.539-.278.539h-.244a.597.597 0 0 1-.533-.284l-2.191-3.032c-.217.012-.442.017-.679.017h-1.542v2.859c0 .282-.157.44-.439.44h-.152c-.283 0-.44-.158-.44-.44V4.599c0-.283.157-.44.44-.44h2.147c2.761 0 4.162.686 4.162 2.938 0 1.669-.829 2.505-2.394 2.816l2.143 2.908zm-3.931-3.658c2.006 0 3.148-.329 3.148-2.034 0-1.704-1.143-2.054-3.148-2.054h-1.541v4.088h1.541zM64.484 13.36c-.283 0-.441-.158-.441-.44V5.109h-2.256c-.283 0-.441-.158-.441-.44v-.07c0-.283.158-.44.441-.44h5.527c.283 0 .44.157.44.44v.07c0 .282-.157.44-.44.44H65.07v7.811c0 .282-.158.44-.44.44h-.146zM23.054 22.104v-4.623c0-.238.134-.371.371-.371h1.044c2.18 0 3.054.873 3.054 2.682s-.874 2.682-3.054 2.682h-1.044c-.237 0-.371-.133-.371-.371v.001zm1.445-.408c1.563 0 2.156-.586 2.156-1.912s-.593-1.904-2.164-1.904h-.578v3.816h.586zM28.241 22.104v-4.623c0-.238.134-.371.371-.371h2.756c.237 0 .371.133.371.371v.037c0 .236-.134.369-.371.369H29.1v1.498h2.135c.237 0 .37.133.37.371v.006c0 .238-.133.363-.37.363H29.1v1.572h2.268c.237 0 .371.133.371.371v.037c0 .236-.134.369-.371.369h-2.756c-.237 0-.371-.133-.371-.369v-.001zM39.575 25.563c-1.669 0-3.072-.727-3.72-1.848-.149-.25-.071-.412.231-.539l.104-.041c.238-.096.387-.037.592.246.583.797 1.585 1.27 2.786 1.27 1.447 0 2.409-.65 2.409-1.691 0-2.543-5.876-.832-5.876-4.361 0-1.465 1.341-2.499 3.158-2.499 1.492 0 2.803.624 3.406 1.651.15.256.07.443-.211.531l-.138.045c-.226.07-.389.016-.587-.242-.552-.709-1.34-1.059-2.431-1.059-1.306 0-2.203.613-2.203 1.572 0 2.615 5.883.779 5.883 4.373.001 1.553-1.397 2.592-3.403 2.592zM44.504 25.438c-.283 0-.441-.158-.441-.441v-8.32c0-.283.158-.441.441-.441h5.041c.283 0 .441.158.441.441v.07c0 .281-.158.439-.441.439H45.09v3.109h4.227c.283 0 .44.158.44.441v.041c0 .283-.157.436-.44.436H45.09v3.271h4.455c.283 0 .441.158.441.441v.07c0 .281-.158.439-.441.439h-5.041v.004zM51.436 25.436c-.283 0-.441-.158-.441-.439v-8.322c0-.281.158-.44.441-.44h.296c.237 0 .408.079.54.278l5.238 7.381v-7.219c0-.281.158-.44.441-.44h.144c.283 0 .44.159.44.44v8.322c0 .281-.157.439-.44.439h-.259c-.238 0-.408-.078-.541-.275l-5.276-7.434v7.27c0 .281-.157.439-.44.439h-.145.002zM62.584 25.436c-.283 0-.441-.158-.441-.439v-7.811h-2.256c-.283 0-.441-.158-.441-.441v-.07c0-.281.158-.44.441-.44h5.527c.283 0 .44.159.44.44v.07c0 .283-.157.441-.44.441H63.17v7.811c0 .281-.158.439-.44.439h-.146zM66.742 24.997v-8.322c0-.281.158-.44.44-.44h.145c.282 0 .44.159.44.44v8.322c0 .281-.158.439-.44.439h-.145c-.282 0-.44-.158-.44-.439zM69.832 25.438c-.283 0-.44-.158-.44-.441v-8.32c0-.283.157-.441.44-.441h5.041c.283 0 .441.158.441.441v.07c0 .281-.158.439-.441.439h-4.455v3.109h4.227c.283 0 .441.158.441.441v.041c0 .283-.158.436-.441.436h-4.227v3.271h4.455c.283 0 .441.158.441.441v.07c0 .281-.158.439-.441.439h-5.041v.004zM82.82 24.897c.237.344.146.539-.277.539h-.244a.596.596 0 0 1-.533-.283l-2.191-3.033c-.218.012-.443.018-.68.018h-1.541v2.859c0 .281-.158.439-.441.439h-.15c-.283 0-.441-.158-.441-.439v-8.322c0-.281.158-.44.441-.44h2.146c2.761 0 4.162.686 4.162 2.938 0 1.67-.828 2.506-2.395 2.816l2.144 2.91v-.002zm-3.93-3.658c2.007 0 3.147-.328 3.147-2.033s-1.141-2.055-3.147-2.055h-1.54v4.088h1.54zM23.057 24.481c0-.225.112-.336.299-.336h8.104c.208 0 .298.143.298.336s-.105.322-.298.322h-8.104c-.193 0-.299-.131-.299-.322zM34.899 2.984c-.256 0-.332-.217-.188-.521l.651-1.302a.524.524 0 0 1 .514-.323H36c.28 0 .365.224.193.526l-.708 1.293c-.131.229-.325.327-.586.327z" />
  </g>
</svg>
