<svg xmlns="http://www.w3.org/2000/svg" width="1920" height="1097" overflow="visible" xml:space="preserve"><path fill-rule="evenodd" clip-rule="evenodd" d="m936 77-18 90c-4.632 27.14 7.041 55.317 25 60 26.562 6.926 35.162-23.576 43-37 12.873-22.047 25.585-45.756 31-75 5.634-30.423-4.102-60.401-8-86-1.86-12.216 3.309-20.147 5-29-4 .635-2.977-.078-5 2-14.04 20.641 2.463 58.899 4 83 3.031 47.542-31.907 125.292-61 138-23.838-1.713-34.204-30.683-29-58 9.494-49.839 22.135-102.544 16-164l-5-1c1.001 23.959 6.372 49.962 2 77zM764 268c17.479-10.303 15.892-35.575 7-54-14.067-29.149-45.701-73.364-87-74-60.44 27.651-4.115 177.578 80 128zm-81-123c39.656.123 70.105 44.614 84 72 7.212 14.214 10.336 35.74-3 45-73.838 51.27-132.319-86.061-81-117zm225-44c-6.988 27.628-30.362 56.417-24 92 6.985 39.066 34.443 59.818 41 98 5.418 31.552-67.791 81.924-94 87-22.003 4.261-39.049-13.862-52-21-43.852-24.167-122.307-12.646-152-51-10.25-13.239-30.718-90.456-56-72-10.626 6.056-14.281 31.022-11 50 7.132 41.258 18.714 93.42 38 126 46.182 78.017 131.943 33.136 204 20 28.044-5.112 66.257 15.469 92 21 45.729 9.826 85.025 7.024 101 46 9.426 22.998 3.542 55.857 10 83 10.988 46.181 76.372 100.227 14 142-38.679 25.905-123.583 24.424-151 59-20.521 25.88-56.539 62.42-42 112 2.919 9.955 6.816 18.632 15 23 39.41 21.036 95.763-43.111 156-18 15.444 6.438 27.893 21.205 34 37 11.411 29.511 1.862 93.018 53 72 51.997-21.371 70.247-87.393 117-116 35.591-21.777 95.383-16.357 120-49 11.38-15.09 23.348-43.142 15-71-20.913-69.795-106.416-29.043-143-76-15.65-20.087-26.128-44.527-42-64-18.863-23.143-47.597-35.745-64-62-18.781-30.062-23.258-73.208-42-104-27.28-44.821-67.146-93.028-78-153-4.126-22.794 13.915-44.105 21-59 17.96-37.757 38.494-78.444 49-120 6.895-27.272-2.569-62.986 3-94 2.143-11.931 7.316-19.797 11-29l9-9-12-1c-4.598 10.111-12.119 17.197-15 30-7.398 32.878 3.051 75.411-5 105l-49 118c-7.207 16.395-24.594 35.116-20 61 10.959 61.749 52.447 110.639 80 157 18.2 30.624 22.563 72.521 41 102 17.858 28.554 48.704 42.555 69 68l37 58c34.77 45.117 121.748 13.557 142 72 8.285 23.908-1.771 53.875-14 67-27.078 29.062-85.271 26.607-120 48-43.317 26.682-66.854 95.924-113 114-40.305 15.788-32.922-36.734-41-63-6.234-20.271-20.227-38.258-39-46-38.447-15.854-80.703.355-110 13-13.521 5.836-36.772 12.61-50 2-38.603-30.964 26.302-116.694 43-129 38.969-28.718 115.027-22.108 150-56 50.521-48.96-9.656-96.955-21-142-8.745-34.727-1.279-72.628-17-98-19.233-31.042-59.024-28.902-101-38-26.956-5.843-63.208-26.479-94-21-56.842 10.113-123.606 47.106-178 5-17.443-13.503-24.637-36.169-32-60-7.785-25.196-37.829-102.898-14-127h3c18.569 10.921 21.566 36.859 31 57 8.106 17.308 26.022 31.568 44 39 25.384 10.494 59.286 7.946 88 16 28.125 7.889 47.129 28.443 75 34 40.697 8.114 109.649-57.169 115-87 8.048-44.869-49.628-73.143-41-121 4.686-25.989 16.784-45.865 23-70 8.918-34.63 1.946-75.101-3-108h-8c2.274 31.756 12.551 67.192 4 101zm1012 806h-2c-30.522 48.039-3.889 91.334 0 147l2 1c-.134-36.937-19.949-74.738-15-106 2.753-17.389 12.838-27.513 15-42zm-57 56c-34.108-56.558-80.398 5.501-126-30-52.308-40.722-23.787-270.682-144-226-65.748 24.438-21.596 62.631-40 116-14.289 41.436-53.153 75.475-87 98-34.464 22.936-77.387 29.075-119 47-44.556 19.192-65.624 62.539-92 100-6.176 8.771-16.183 17.381-19 29h4c20.02-35.553 59.099-96.345 93-117 26.025-15.856 62.693-19.584 92-32 47.276-20.028 89.329-54.077 117-94 8.248-11.9 14.95-27.452 18-44 2.689-14.596-1.207-30.72-3-42-5.176-32.555 18.22-48.32 39-56 10.899-4.028 26.184-6.724 39-2 74.546 27.475 47.446 162.825 93 220 13.587 17.054 44.071 23.075 73 16 9.662-2.363 23.783-8.034 35-5 32.871 8.894 56.464 110.322 58 156h7c-10.106-12.058-7.079-38.009-11-56-6.196-28.427-13.777-56.074-27-78zm-459-501c9.984-33.503-64.888-59.632-97-59-26.599 10.666-68.465 16.2-99 21-27.117 4.263-63.824-13.633-84 1-16.913 12.266-18.225 71.065-11 97 13.162 47.246 53.527 64.979 89 90 19.763 13.939 35.69 32.577 64 38 71.834 13.761 30.891-83.104 51-119 17.104-30.53 80.22-46.247 87-69zm-100 99c-5.893 37.541 21.014 95.339-36 85-27.382-4.966-42.938-23.605-62-37-34.712-24.39-74.249-41.709-88-87-6.846-22.546-5.929-72.586 5-89 8.124-12.202 42.772-8.772 61-6 36.313 5.523 90.465-7.603 117-19 33.01-.361 105.679 21.31 99 51-4.837 21.505-69.684 40.698-85 66-5.878 9.71-8.937 22.859-11 36zm-214-344-10-1c-25.445 17.381-48.3 75.824-34 118 4.688 13.824 27.908 53.271 49 40 17.158-11.686 13.05-148.285-5-157zm-1 154c-11.654 2.717-22.453-11.516-28-19-28.294-38.175-7.709-109.242 22-132l6 1c5.05 7.843 8.977 16.814 11 28 4.22 23.327.768 118.024-11 122zm781 411c-13.338 17.736-10.453 49.987 11 57 15.115 4.94 28.547-5.275 39-9v-4c-18.842 4.955-42.846 19.304-53-6-11.72-29.202 23.4-61.262 52-53h1v-4h-18c-12.18 6.008-24.318 8.785-32 19zM1182 66c22.02 15.571 67.835-8.093 51-36-3.367-7.385-9.636-8.651-21-8-15.3 9.101-37.159 19.251-30 44zm33-40c5.366.12 7.302.561 10 3 21.776 12.835-12.011 44.794-37 36-10.834-19.094 14.941-32.191 27-39zm-103 66c3.226 11.136 8.295 19.628 17 25 15.667 9.667 52.825 8.745 75 5 59.795-10.099 107.702-51.671 88-120l-1-2h-5c17.223 72.801-21.562 106.761-89 118-15.025 2.504-38.021 4.101-53 0-49.548-13.564-23.688-80.518 6-96l20-21-7-1c-14.208 28.102-65.52 41.869-51 92zm806 792c-12.452 13.604-29.824 24.278-36 44-8.548 27.295 7.405 58.622 13 81l15 86-1 2h6c-8.824-17.352-6.416-41.306-11-63-13.343-63.144-38.712-106.217 16-146-.965-3.625.065-2.036-2-4zm-824-764c4.318 11.852 8.912 23.252 20 28 20.96 8.974 56.721-2.629 77-6 25.028-4.16 48.088-3.495 68-12 38.922-16.625 85.623-79.427 61-130h-5c3.215 11.672 13.482 22.638 10 40-6.234 31.083-43.617 76.26-71 87-20.732 8.131-44.906 6.564-70 11-17.219 3.044-51.16 14.135-68 6-10.983-5.306-15.048-18.302-19-31-13.954-44.839 9.686-87.7 41-102l9-10V0h-6c-27.477 35.163-72.377 50.362-47 120zm56-23c10.565 6.572 30.086 9.439 46 7 53.408-8.186 91.49-43.742 68-102-2.979-1.475-5.697-2.084-11-2v1c33.334 58.729-37.826 121.829-97 90-35.049-18.852 24.337-78.552 41-86l3-4-12-1c-12.016 15.307-83.15 68.916-38 97zm425 949c-12.788 5.433-26.532 4.741-38 10l-39 25-14 15v1h4c37.849-29.444 81.403-69.003 137-29 9.98 7.181 21.804 15.26 26 28l5 1c-8.668-27.872-44.721-50.624-81-51zM856 756c4.52-2.112 5.886-4.582 8-9-.657-18.134-15.616-28.355-35-28-4.498 2.498-6.649 2.192-9 7-8.496 17.954 21.069 39.153 36 30zm-33-22 1-7 5-3c17.289-.58 28.608 7.852 30 23-13.534 14.266-29.322-2.035-36-13zM635 354c-26.767 12.672-22.155 39.304-6 60 24.964 31.982 114.781 28.295 132-8 20.605-43.434-89.336-53.001-126-52zm123 41c-6.062 53.064-159.317 51.208-134-30l11-6c51.244-.153 102.444 4.439 123 36zM702 8c27.553 10.503 55.667 8.604 81-2l4-5V0c-17.52 1.521-28.667 16.476-54 12C715.145 8.845 703.766.149 684 0c3.697 5.565 11.242 5.424 18 8zm23 229 5-6c3.92-17.177-6.29-29.013-22-30-3.363 2.489-5.071 2.876-7 7-7.75 16.728 8.361 29.831 24 29zm-16-31c9.853 1.242 13.608 7.427 17 15-.092 4.543-.184 5.731-2 8-1.567 2.648-1.867 2.214-4 4-9.636-3.431-15.202-8.791-15-22l4-5zm850 862c-18.842 9.847-39.284 11.505-52 27l-2 1c16.427 4.653 51.491-43.69 93-17 7.023 4.516 14.99 8.544 17 18h6v-1c-11.033-20.85-28.571-28.897-62-28zM822 0h-5c-3.871 33.565-38.775 51.025-83 43-28.588-5.188-50.811-16.594-75-26L604 0h-9v1c9.804 10.504 33.367 10.542 48 16 40.229 15.006 172.996 70.839 179-17zm313 816c1.503-5.188 2.859-10.226 0-15-4.877-10.813-16.402-13.763-33-13l-11 5c-2.516 3.928-6.021 10.468-3 17 6.463 18.279 33.843 15.554 47 6zm-41-16c2.301-4.083 5.171-4.587 9-7 13.313-.067 16.894 3.333 25 7l4 9c-12.462 14.164-27.769 9.952-40-1 .092-4.543.184-5.731 2-8zm716 226c-20.377 9.623-8.583 46.354-8 71h5c-6.55-22.442-10.054-60.119 8-69 31.39-.047 34.366 43.424 40 69h4c-7.021-19.965-14.351-90.349-49-71zM952 798c-5.916 8.989-20.136 31.333-10 46 8.143 11.783 74.537 27.561 92 40 15.513 11.05 42.393 64.306 60 63 29.135-2.161 72.065-68.509 106-83 33.354-14.243 79.155-10.683 102-35 10.043-10.69 18.309-35.432 10-55-13.938-32.827-54.582-21.852-93-31-13.383-3.187-25.553-10.489-35-18-33.488-26.625-36.476-88.822-91-94l-4 2c-13.353 7.952-7.608 44.301-13 60l-16 28c-27.282 34.522-83.479 39.739-108 77zm132-120 3-35 5-7c51.414 1.053 61.337 71.877 93 96 30.933 23.566 102.958 8.641 122 42 11.99 21.006-2.422 48.554-15 58-25.946 19.486-74.073 15.417-103 32-35.687 20.458-54.171 62.227-93 78-22.092-1.249-29.465-30.393-40-44-15.135-19.549-41.276-31.124-67-40-16.497-5.692-40.623-6.306-45-24-11.832-45.024 82.024-77.234 107-97 16.454-13.022 28.452-34.205 33-59zm647 290c-47.124-37.034-41.568-137.85-70-193-8.01-15.536-24.243-47.305-53-37-27.855 9.981-19.661 58.635-31 85-18.689 43.457-60.089 84.015-97 110-19.6 13.798-43.504 25.877-67 35-26.009 10.099-54.775 14.355-77 28-24.58 15.09-40.085 38.139-56 62-7.742 11.607-20.601 23.975-24 39h5c4.103-15.176 16.768-28.177 25-40 13.734-19.724 27.018-40.689 47-54 28.083-18.707 68.756-24.83 101-39 49.027-21.546 91.929-58.208 122-99 12.818-17.389 25.119-35.945 31-60 4.226-17.282 1.277-40.17 10-53 3.85-5.663 14.319-13.7 26-11 51.075 11.808 54.778 122.039 71 174 5.491 17.591 14.637 33.941 25 47 33.45 42.151 63.662 4.725 106 18 36.302 11.383 50.312 71.493 52 117h5c-11.432-34.159-9.391-71.734-27-98-30.611-45.658-86.841-1.797-124-31zm-646-97c8.752 3.569 27.303 4.871 37 1l61-37 81-17c7.661-3.583 18.925-14.229 14-27-8.271-21.634-41.626-11.204-67-16-43.069-8.14-61.746-57.073-95-58-30.391 16.771-54.938 41.064-83 61-10.2 7.247-26.727 16.719-25 35 2.211 23.42 56.69 49.719 77 58zm-60-82 44-30c16.138-11.552 28.87-25.912 46-37 33.123.896 51.362 46.894 88 56 25.264 6.279 57.402-3.532 71 14v9c-10.107 24.142-54.542 17.975-81 26-30.261 9.178-48.055 33.386-76 42-26.68 8.224-92.465-32.81-101-47-7.82-13.002 1.675-26.122 9-33zm689 258c-11.879 2.085-26.786 6.172-41 3-34.706-7.744-55.793-26.777-100-26l-21 4c-24.102 9.358-81.774 45.677-89 69h3c30.55-24.218 71.096-81.097 133-68l74 25c16.999 3.402 33.399-2.216 48-4 26.025-3.181 43.396 24.742 45 47h4c-1.665-27.292-21.372-56.079-56-50zM882 409c6.796 19.271 66.754 31.939 82 11 16.469-22.619-13.952-61.058-36-61-14.332 6.566-55.498 26.531-46 50zm79 7c-15.839 11.862-72.657 13.684-76-11-2.674-19.743 29.451-33.965 42-41 26.097-.503 38.503 28.558 34 52zM1612 2l1-2c-30.881.041-59.587 10.215-94 5l-56-5c21.911 18.354 121.041 8.339 149 2zm157 299-26 6c-23.348 9.167-40.887 29.49-53 50-28.295 47.907-23.023 129.628-55 174-36.67 50.885-93.217 26.63-142 56-34.115 20.539-37.684 60.763-61 92-12.099 16.209-31.672 23.548-38 46-7.944 28.185-2.691 64.81-9 92-5.893 25.396-22.528 56.071-14 84 49.913 34.482 129.457-38.234 138-78 8.507-39.598-39.012-68.039-16-102 14.916-22.014 87.211-49.237 119-56 79.368-16.885 93.708 62.944 119 105 7.305 12.146 13.043 33.913 28 38 12.108 1.883 21.065-25.086 27-34 23.426-35.19 54.359-56.911 91-79 11.566-6.973 39.979-15.544 43-30h-1c-32.237 20.741-69.332 38.302-99 62-25.042 20.004-36.489 59.961-60 78-9.578-5.714-13.206-16.48-19-26-26.44-43.442-38.529-108.342-98-119-47.925-8.589-153.027 42.202-159 73-7.559 38.976 32.732 55.979 19 96-11.265 32.829-84.784 100.571-129 68-6.46-27.747 11.058-61.735 17-88l7-81c6.451-23.3 26.906-30.802 39-48 22.274-31.677 25.99-70.004 60-90 50.684-29.8 104.235-3.742 142-57 47.519-67.014 18.132-172.646 97-218 53.013-30.485 123.604 11.827 184 4v-4c-54.421 3.248-93.592-14.41-151-14zM1441 14c44.078 7.001 102.233 14.887 150 6 22.814-4.245 43.437-11.44 64-17l2-3c-18.871.203-31.961 8.003-48 12l-46 6c-35.256 5.58-77.131-1.885-107-7l-60-5c-10.814-2.084-17.984-5.919-31-6 11.891 15.526 52.365 10.246 76 14zm137 391c30.352-28.18 47.641-83.991 68-121 5.651-10.272 17.895-28.747 11-44-6.129-13.559-27.408-14.658-48-14-31.403 14.59-72.038 40.207-85 71-11.322 26.897 31.536 107.509 54 108zm-53-90c-3.222-21.986 47.657-67.289 62-76l25-9c21.087-.424 31.272 2.659 41 13 4.234 22.612-11.698 37.897-20 52-20.592 34.981-31.167 76.74-57 106h-5c-11.239-10.625-15.827-23.992-24-38-7.984-13.684-19.359-29.975-22-48zm252 1-29 6c-23.775 9.782-41.925 32.57-52 56-26.608 61.878-18.078 149.206-66 189-33.578 27.882-109.495 15.838-136 51-7.252 9.621-18.074 29.887-8 45 8.647 12.973 33.78 10.557 50 6 34.587-9.716 67.461-39.575 114-30 43.615 8.974 59.931 38.918 80 71 6.938 11.091 13.277 25.01 26 30 22.8 8.943 42.815-17.492 54-26l66-45 44-50v-6h-1a1117534.61 1117534.61 0 0 0-45 52l-66 45c-10.547 7.777-29.725 33.845-50 26-12.829-4.964-19.022-19.875-26-31-19.752-31.491-36.333-61.129-79-70-49.446-10.28-83.32 19.35-119 30-17.718 5.288-42.221 5.65-47-11-3.336-11.62 3.441-22.472 7-28 21.775-33.83 61.465-23.914 105-37 16.046-4.823 31.154-14.694 41-26 58.023-66.627 25.943-266.04 165-242l49 11c24.365 8.28 44.913 19.9 65 32h1v-5c-42.75-18.113-77.952-44.166-143-43zm51-183-11-1c-20.539 11.004-45.78 34.079-36 65 38.101 27.55 76.846-37.088 47-64zm-9 3 9 2c16.895 24.132-11.008 78.784-40 59-23.697-16.17 20.037-54.918 31-61zm-665 31c-36.584 22.372-39.04 143.174-22 192 27.639 79.197 109.755 40.931 176 30 34.718-5.729 112.387 21.207 131 35 22.082 16.364 7.219 52.868-7 67-32.626 32.428-116.18 22.193-95 102l10 25c5.268 11.351 11.04 22.566 21 29 46.299 29.904 82.065-51.004 105-67 42.845-29.884 111.977-7.688 151-51 19.575-21.726 23.188-54.012 31-88 12.343-53.696 27.551-104.602 66-132 21.86-15.578 61.284-21.141 99-15 16.842 2.742 45.609 4.583 61-1 28.235-10.244 39.434-63.621 39-102-21.453 21.454-7.538 79.918-40 94-18.584 8.061-51.087 3.263-71 0-39.859-6.531-76.326 4.921-96 20-38.492 29.501-53.272 81.484-66 137-6.767 29.515-9.893 55.574-25 76-35.232 47.634-111.635 24.996-157 58-19.758 14.374-55.106 90.372-93 64-8.79-6.118-14.709-17.274-19-28l-9-23c-18.07-72.619 66.763-60.085 95-93 15.42-17.975 30.071-58.737 5-78-19.288-14.819-100.009-43.121-137-37-63.933 10.579-144.61 50.24-169-30-14.788-48.652-12.032-158.966 24-179 30.462-16.937 82.11-7.865 117-21 17.13-6.449 51.862-40.883 69-37 16.154 3.66 27.275 21.002 39 30 17.52 13.444 39.158 26.46 63 33 51.852 14.222 92.36-14.94 135-22 32.813-5.433 62.966 9.035 95 2 57.295-12.583 78.932-71.373 113-108 14.926-16.046 31.596-39.994 66-30 22.846 6.636 41.109 19.671 60 30 7.35-18.508-61.701-40.157-88-39-26.473 14.292-48.232 30.685-64 55-21.396 32.993-43.655 73.363-87 84-30.646 7.52-60.554-7.236-93-2-45.63 7.363-88.122 36.556-139 21-20.098-6.145-38.948-17.292-54-29-13.804-10.738-26.102-29.054-46-33-23.393-4.639-54.072 32.09-77 39-38.092 11.479-86.999 3.654-117 22zm387-135c-41.554-6.529-111.457-10.557-141 7-18.141 10.781-21.725 36.253-12 59 15.572 36.426 59.464 75.435 117 62l76-22c20.628-3.438 43.164 1.309 60 4 55.365 8.851 81.813-26.332 101-55 13.101-19.574 41.584-50.419 30-83-3.73-2.638-4.1-3.834-11-4v1c25.771 28.021-24.459 88.497-41 109-14.88 18.444-46.261 33.45-85 27l-44-4c-36.773 5.879-62.024 17.841-96 24-52.018 9.43-89.981-30.551-103-62-7.905-19.096-5.809-41.357 9-51 43.431-28.278 117.32 1.819 178-8 48.196-7.799 82.687-24.867 125-34l1-2h-14c-20.262 14.132-110.039 38.278-150 32zm379-28c-6.771-2.517-12.417-4.197-22-4 4.271 4.719 14.225 7.096 22 8V4zm-495 790c-7.927 10.631-23.068 58.669-3 68 36.656 16.118 76.462-62.485 17-78l-14 10zm-2 63c-22.662-13.557 7.525-61.685 16-68 53.063 1.311 14.253 88.818-16 68zm56-793-22 7c-16.91 11.307-8.235 36.41 5 45 28.127 18.255 86.198-3.749 96-26l1-9c-18.813-14.131-45.813-17.809-80-17zm19 54c-22.032 4.401-54.246-11.374-45-33 4.98-13.672 17.433-11.788 31-17 29.718-.09 53.843 3.883 71 16-3.725 18.096-38.504 30.305-57 34zm179-68c-19.977 9.381-50.394 8.853-60 28l-1 7c20.354 22.681 67.502 19.526 82-6 10.092-17.77-1.607-29.783-21-29zm-57 32c10.102-17.419 35.216-17.97 54-27l18 1c24.183 34.524-52.218 53.583-72 26zm45-55c-29.074 9.158-55.969 16.886-92 22-43.778 6.213-98.021-16.445-136 2-15.933 7.738-28.869 28.099-19 52 30.154 73.031 111.768 24.877 169 16 45.838-7.11 76.308 21.655 116-9 11.197-8.648 47.809-55.757 35-79-5.389-11.921-18.835-13.805-37-13l-36 9zm43-5c11.248-.131 21.388 2.305 25 10 16.11 19.331-27.681 71.076-38 78-32.679 21.924-71.3-2.322-114 5-46.831 8.03-91.855 43.297-137 10-9.686-7.144-18.743-15.643-23-28-8.508-24.698 10.354-39.621 28-45 41.913-12.777 89.391 8.203 134 1 37.066-5.985 66.384-16.374 98-26l27-5zm-206 393c10.646 39.01-22.772 93.552 19 108 11.107 3.842 28.752 5.269 42 2 54.475-13.439 53.933-69.079 70-121 15.528-50.18 38.435-99.626 77-127 45.676-32.421 133.042 3.092 160-46 25.05-45.616 46.253-167.44-32-168-13.917 6.017-25.11 7.053-36 15-33.607 24.527-49.136 69.951-85 92-34.38 21.136-79.393 1.009-127 9-39.311 6.599-64.111 27.036-104 34-33.99 5.934-67.471-6.301-96-11-33.092-5.45-68.735 2.72-100-3-27.258-4.987-68.929-11.102-93 1-31.955 16.064-43.54 84.717-27 127 25.902 66.218 93.771 32.487 154 23 29.89-4.708 95.096 11.372 122 18 27.521 6.779 48.688 20.208 56 47zm-184-69c-54.72 9.259-118.309 40.701-143-19-16.385-39.616-6.176-108.603 25-123 24.544-11.335 66.151-4.719 93 0 29.374 5.163 61.037-3.074 91 2 32.052 5.427 70.686 17.943 107 11 38.947-7.447 63.929-27.368 104-34 42.872-7.096 88.52 12.502 121-7 36.68-22.024 52.399-65.194 85-91 10.08-7.979 20.479-10.622 33-17 78.668-1.092 57.542 119.794 31 163-21.323 34.711-60.88 16.096-109 24-20.052 3.293-36.477 9.164-50 19-38.988 28.358-62.439 79.55-78 131-14.424 47.694-14.633 101.474-63 115-12.205 3.413-31.437 2.627-42-1-38.357-13.171-7.064-64.06-16-102-7.1-30.142-28.228-45.389-58-53-29.193-7.463-96.351-23.863-131-18zm483 438c-18.26 46.761 28.463 114.386-26 129-9.57 2.567-16.63-3.084-21-6-20.006-13.348-24.017-37.553-29-66l-1-25c-16.033-55.805-31.025-125.477-93-136-43.133-7.324-102.969 30.636-109 61-3.546 17.854 3.737 33.695 7 46 7.3 27.531-4.653 51.521-16 67-25.132 34.283-65.008 61.834-110 76-24.19 7.616-53.765 5.734-75 17-28.259 14.992-43.932 51.296-62 77-16.75 23.829-34.322 47.855-53 70l-1 3c16.951-.392 21.58-16.945 29-27 19.187-25.999 38.216-52.068 56-80 30.271-47.544 69.919-36.967 124-58 43.454-16.9 83.045-47.461 106-85 30.912-50.551-25.669-104.678 31-139 99.016-59.97 140.373 25.036 158 109 8.316 39.616 7.13 114.807 61 104 57.133-11.462 18.229-76.479 28-122 9.446-44.014 64.76-91.702 115-94v-8c-54.657 8.151-101.276 41.614-119 87zm-402-218-2 1c-4.708 6.828-7.218 18.86 5 20 4.648-3.028 6.55-5.742 9-11l-1-7-4-2-7-1zm3 16h-3l-2-7 3-4h5l1 2-4 9zm-202-113c-21.711 8.007-38.479 5.47-47 26-15.783 38.029 39.269 82.447 77 69 17.889-6.375 43.591-50.633 28-78-8.661-15.204-33.322-17.875-58-17zm30 90c-32.777 14.11-86.012-27.375-73-61 6.573-16.988 20.771-17.266 38-24 23.607-.724 48.772-.691 58 13 15.016 22.28-7.49 65.323-23 72zm97-113c-4.604-10.201-18.071-13.359-33-13-59.663 23.55-189.727-15.639-164 87l13 28c13.339 18.123 88.376 70.062 120 44 17.444-14.376 19.491-53.016 29-75 6.365-14.718 43.545-55.775 35-71zm-37 64c-9.441 21.674-12.733 63.506-30 78-29.658 24.896-103.854-28.272-116-47l-10-24c-22.983-91.686 102.601-58.387 156-79 15.575-.578 28.285.666 33 11 5.229 13.872-27.203 47.693-33 61zm596 216c-26.237 10.175-53.129 30.651-63 57-12.771 34.088 5.566 110.306 32 117 20.601 5.217 53.14-22.366 65-30v-4h-1c-10.804 7.113-47.715 36.867-66 29-19.408-8.351-37.106-73.592-28-104 10.542-35.204 49.278-67.641 95-67v-4h-10l-24 6zm-117-135c-12.486-7.39-25.246-17.329-31-31-13.763-32.697 20.045-77.424 28-103 5.207-16.742 4.664-39.035 14-52 5.266-7.313 17.749-15.211 33-12 41.364 8.71 70.18 41.781 106 59 4.593-12.64-17.509-17.476-25-22-29.642-17.901-50.332-45.607-99-44-33.947 18.306-24.859 37.296-38 74-12.75 35.609-46.787 76.026-16 117 8.573 11.41 20.773 22.527 35 28 61.1 23.505 91.131-66.563 143-70l1-2v-8c-52.741 11.231-93.652 99.938-151 66zm64-137c-26.013 11.359-61.118 26.358-43 65 3.944 8.412 8.861 18.16 17 22 42.968 20.272 65.333-49.725 51-81-6.801-4.263-12.897-6.418-25-6zm-13 86c-18.901-1.711-38.586-31.854-28-53 8.125-16.231 24.347-20.96 41-29 52.28-.845 20.549 85.036-13 82zm-69-175c-24.58 18.417-22.208 57.2-31 92l-21 69c-3.589 11.976-7.374 29.854-4 44 6.355 26.647 59.201 72.045 85 79 56.816 15.316 96.213-73.894 139-88l1-5c-41.81 13.739-92.209 109.173-145 87-16.817-7.063-30.146-23.357-44-34-10.992-8.444-23.378-17.446-29-31-13.732-33.107 9.465-73.633 17-99 9.519-32.042 8.021-76.977 26-101 47.333-63.241 139.788 21.718 174 40h1v-5c-44.465-16.239-65.417-61.637-129-61-15.74 5.965-28.435 4.334-40 13zm-224 48c6.976 30.284-13.674 96.542 34 87 39.329-7.872 40.725-57.68 53-93 21.338-61.397 48.812-124.337 96-160 38.67-29.225 112.841 14.282 142-33 20.338-32.978 36.054-124.119-25-123-15.804 8.398-29.413 12.858-40 26-21.228 26.352-43.531 75.492-79 86-38.621 11.442-77.45-13.176-117-4-27.867 6.465-46.812 24.638-71 35-28.938 12.396-63.101 10.371-103 11l-33 1-56-10c-28.548-8.328-68.212-26.193-105-17-32.534 8.13-49.221 57.644-33 97 8.809 21.372 31.143 35.074 64 29l84-20c39.811-6.89 79.818 3.964 112 12 40.276 10.058 67.632 35.331 77 76zm-200-91c-26.265 5.751-73.024 27.225-105 18-34.099-9.837-42.111-68.253-22-100 12.509-19.746 48.823-21.042 77-14 49.947 12.482 85.924 23.274 151 23l41 1c21.525-3.549 40.719-6.531 58-14 24.705-10.678 42.269-28.406 73-34 42.088-7.662 86.852 19.901 120 1 28.902-16.48 46.654-53.506 67-79 11.305-14.165 24.984-20.044 42-29 55.99-.15 35.93 93.729 17 120-25.983 36.06-102.734 2.671-137 27-46.414 32.955-79.201 99.163-98 159l-15 56c-5.895 16.673-25.9 49.98-51 36-21.897-10.546-7.516-42.132-12-69-5.255-31.482-17.21-56.226-38-72-27.726-21.036-116.068-41.372-168-30zm-86-73c-18.624 9.421-43.539 40.101-16 61 21.786 16.533 66.079 1.394 77-15 19.777-29.689-33.401-47.07-61-46zm58 40c-7.991 17.957-58.303 35.259-75 13-18.509-24.674 6.262-42.244 24-49 21.953-.001 57.851 11.673 51 36zm543 498c-13.336 32.58 3.652 74.382 31 80 19.758 4.059 34.229-10.241 47-15v-4c-16.06 4.344-36.253 23.67-57 11-8.741-5.338-13.275-15.445-17-26-17.942-50.848 25.861-90.155 74-89v-4h-12c-30.772 12.579-53.661 16.855-66 47zm-381-251c34.153 24.192 117.725 7.809 142-11 32.277-25.009 32.557-79.857 46-124 8.541-28.048 20.561-55.382 36-77 18.352-25.694 42.456-42.025 81-48 36.876-5.717 77.978 10.215 104-7 20.354-13.465 24.693-46.407 32-73 22.043-80.23 29.793-136.764-56-158l-24 5c-15.896 6.576-32.805 21.287-43 34-24.637 30.719-46.262 72.967-88 86-33.775 10.547-73.876-6.281-110 1-37.431 7.544-70.347 35.219-118 27-38.342-6.613-66.252-24.557-102-31-26.284-4.738-50.875 7.27-74 11-35.617 5.745-71.918-3.437-100 7-42.768 15.894-54.412 103.026-37 158 25.791 81.426 100.719 43.352 171 33 23.489-3.46 123.273 22.255 138 31 54.911 32.609-9.003 95.303 2 136zm13-42c11.69-32.394 18.44-78.892-11-97-17.289-10.634-119.703-36.997-150-32-55.882 9.216-117.841 41.767-151-13-23.635-39.036-18.043-142.591 16-164 29.476-18.537 82.458-6.103 124-14 18.725-3.56 40.113-13.861 62-9 39.256 8.72 76.639 39.682 129 30 36.923-6.827 63.214-21.771 103-28 45.945-7.194 77.941 14.646 117-9 40.013-24.224 56.784-73.828 94-101 9.244-6.75 19.787-8.626 31-14 87.262-.821 79.653 79.137 62 144-5.602 20.581-8.146 43.929-18 61-25.793 44.684-118.283 10.618-162 37-40.174 24.244-62.312 71.357-77 121-14.739 49.815-14.131 101.834-56 124-15.758 8.342-106.771 22.965-121 3-7.269-9.919 4.498-29.298 8-39zm303-161-30 9c-48.642 28.822-45.492 110.211-64 169-5.83 18.52-27.258 56.072-22 80 4.391 19.978 64.934 56.373 81 77 8.416 10.805 15.868 24.138 32 27 17.66 3.134 33.728-11.864 44-18 19.152-11.438 38.51-22.084 52-39 13.65-17.117 27.815-43.067 49-52l1-2v-3c-23.579 6.624-40.079 37.544-54 55-13.16 16.502-32.508 26.683-51 38-10.751 6.579-29.779 22.419-47 15-18.731-8.07-38.098-43.259-56-57-13.918-10.684-39.666-21.501-46-39-7.674-21.199 21.041-80.96 27-101 21.124-71.048 13.703-176.771 121-153l36 11c23.554 10.152 48.025 36.06 70 42v-4c-40.606-26.178-74.324-56.292-143-55zM210 434c32.316-13.42 15.253-70.693-26-69-15.1 8.881-28.973 16.279-33 36-5.251 25.719 35.258 42.859 59 33zm-23-64c25.485-.825 45.312 30.679 29 53-13.501 18.475-51.783 3.3-58-11-10.022-20.704 16.396-35.54 29-42zM28 1073l-12-1c-7.357 6.399-10.487 11.394-14 22v3h5c1.252-8.36 4.32-15.908 11-19l7-1c5.707 5.316 10.463 10.424 12 20h5c-1.393-12.169-7.081-17.553-14-24zm298-258c41.684-15.904 20.109-102.819-40-101-59.079 29.657-.247 116.356 40 101zm-37-93c44.066-.925 70.349 67.733 31 86-39.67.741-73.108-64.776-31-86zm382 272c-13.904-50.53 74.218-75.518 86-123 17.816-71.802-71.117-161.715-14-206 35.673-27.658 113.152-7.169 161-24 28.159-9.905 37.948-32.526 45-64 3.263-14.563 4.503-35.469-1-49-14.203-34.921-52.196-34.091-94-42-95.911-18.146-206.932 26.689-274-32-36.326-31.788-54.415-95.548-67-150-10.156-43.942-7.159-94.98-56-100l-26 6c-27.998 11.562-61.591 45.483-49 90 8.444 29.856 31.858 49.382 48 72 21.586 30.247 44.929 66.165 59 102 24.724 62.963-29.275 104.635-16 169 10.081 48.878 42.732 73.767 52 123 9.621 51.109-27.002 83.806-17 136 7.902 41.24 42.668 86.96 33 139-17.613 94.808-101.428-10.376-167 32-8.567 5.536-18.523 11.57-23 21l-2 2v1c15.286-2.084 29.596-27.253 59-32 37.34-6.028 98.634 45.011 124 13 37.717-47.598-6.173-122.301-17-165-14.127-55.711 24.824-89.868 15-146-8.849-50.563-42.174-75.365-52-124-12.464-61.691 38.058-97.348 19-161-12.864-42.965-42.304-85.189-67-119-12.073-16.529-29.238-31.512-38-51-20.275-45.093 9.916-84.341 43-98 28.202-11.644 48.411 2.864 58 22 9.793 19.543 9.45 45.096 15 69 12.919 55.644 31.522 124.874 71 155 75.971 57.975 174.664 12.001 276 31 32.546 6.102 65.679 5.279 82 27 12.772 16.998 11.375 50.241 4 72-10.214 30.131-23.674 44.257-57 51-68.332 13.825-144.157-14.219-163 48-18.966 62.626 45.318 102.046 33 172-10.605 60.223-104.278 77.376-87 136 7.517 25.505 34.88 41.09 60 49 16.79 5.287 41.674 4.223 45 23l-8 15-13 13c15.906-.377 25.738-18.431 25-36-31.808-28.064-91.959-19.607-105-67zM437 275c-6.636 16.302 3.523 47.679 24 33 3.543-14.449-.274-24.289-6-34l-14-2-4 3zm12 2c5.465 4.976 13.105 16.995 7 27-1.997 2.612-1.109 1.995-5 3-7.286-3.909-16.216-15.113-11-25l3-5h6zM335 843c26.775-10.372 36.936-53.956 27-91-10.308-38.431-35.748-61.107-86-60-16.378 7.372-29.373 8.198-36 25-19.595 49.68 51.025 143.035 95 126zm-86-132c6.126-8.354 16.829-9.433 27-14 43.488-.973 68.124 16.919 79 48 11.96 34.181 4.848 84.001-23 94-19.164 6.881-33.844-8.765-43-16-18.266-14.435-66.823-75.43-40-112zm-38 229c36.803 11.482 79.843-29.514 108-17 7.123 3.166 11.364 11.101 16 17 17.088 21.747 35.569 43.57 67 51 22.582 5.338 48.188 1.695 56-14 13.919-27.964-12.5-72.885-2-108 9.029-30.196 38.174-54.676 30-99-8.885-48.181-44.847-69.79-54-119-8.768-47.136 15.616-84.157 22-124 8.732-54.499-58.103-153.032-103-153-27.183 22.856-25.635 84.914-44 116-14.285 24.181-35.739 45.821-61 59-19.902 10.383-52.807 16.066-63 36-12.932 25.288 7.952 57.547 2 83-39.877 23.447-99.409 2.331-130-13-13.16-6.595-31.039-21.892-52-16H0v9c37.523-4.067 74.987 30.432 118 38 23.479 4.132 67.198-1.116 74-15 14.237-18.563-13.252-59.627-1-82 10.519-19.208 45.119-23.857 64-35 24.89-14.689 45.33-36.078 60-61 13.405-22.773 21.976-100.05 41-111 23.879 2 37.895 25.413 49 41 18.487 25.948 34.721 51.33 41 90 7.275 44.805-31.973 84.265-22 139 9.164 50.295 44.252 72.052 54 120 7.872 38.724-21.36 66.136-30 95-9.3 31.068 15.884 98.009-3 113-6.396 5.077-19.686 5.927-30 4-34.687-6.479-50.537-20.253-68-43-7.353-9.578-14.038-21.197-26-26-34.42-13.819-79.258 34.682-114 14-30.623-18.23-38.556-71.09-61-98-23.145-27.75-66.521-23.659-106-36L0 777v8c27.088 27.231 87.946 17.405 122 38 41.561 25.135 45.169 103.325 89 117zm-5-257c-9.152 12.996 2.352 40.256 6 52 17.038 54.848 34.305 75.721 65 114 11.516 14.361 33.458 48.852 62 35 47.991-23.291 59.954-100.323 35-161-17.29-42.041-63.164-53.941-124-53-13.881 5.523-36.108 1.793-44 13zm3 7c6.491-13.533 26.315-9.523 41-15 55.541-.775 96.085 8.704 116 43 27.647 47.612 17.17 132.336-21 157-26.867 17.36-42.411-6.168-57-21-36.01-36.608-57.874-73.046-74-131-2.525-9.074-8.008-21.981-5-33zm2 203c-24.125-21.548-26.344-64.712-52-85-28.38-22.442-68.511-20.583-109-33-13.868-4.253-24.065-12.746-36-18L1 744H0c2.291 37.099 82.73 37.701 117 48 15.899 4.778 30.732 13.276 42 23 23.752 20.497 25.217 65.906 51 84 14.938 10.482 39.877 5.069 48-8 15.516-24.965-29.163-70.059-39-84-14.968-21.213-20.334-52.09-36-73-5.301-7.076-15.518-15.312-24-19l-60-15c-24.031-7.606-46.095-22.457-76-23-6.757 2.991-14.304 4.823-20 7l-3 4v6h1c5.944-4.547 9.953-10.395 19-12 12.805-2.272 28.571 4.534 38 8 30.551 11.229 102.506 23.342 120 46 15.929 20.632 20.962 51.752 36 73 9.487 13.405 51.864 55.668 40 79-6.704 13.184-31.854 14.954-43 5zm155-353-6-1c-9.933 6.386-35.078 25.936-27 45 2.182 3.774 4.767 4.413 9 6 21.671-.979 30.764-24.908 28-47l-4-3zm-20 45-7-1c-7.501-16.024 12.56-32.364 21-40l5 1c2.836 19.954-6.5 32.068-19 40zm843 362c17.166-21.382 43.27-32.984 76-39 16.604-3.052 32.623-1.49 46-7 40.678-16.755 72.577-82.838 59-146-5.98-27.823-13.974-56.158-38-66-35.039-14.353-80.107-4.541-106-26l-41-46c-29.25-23.466-63.678-44.872-79-82-12.434-30.128-8.723-74.964-23-103-19.82-38.923-55.104-54.033-64-107-9.634-57.366 35.273-120.735 49-159 5.604-15.622 8.196-40.367 5-61-7.707-49.752 16.866-85.402 46-99l4-5V0h-6c-16.712 17.752-36.719 26.066-45 53-9.582 31.164 3.183 73.66-6 104-14.761 48.771-66.63 110.387-50 181 11.045 46.899 49.762 63.661 66 103 7.688 18.627 6.367 40.642 11 63 7.93 38.271 24.372 66.69 50 87l51 41c12.565 14.219 23.431 33.016 40 43 23.557 14.193 64.163 7.723 93 17 27.601 8.88 47.624 59.717 41 101-7.169 44.684-20.931 83.63-54 102-17.577 9.765-46.376 6.481-68 12-30.093 7.681-52.539 25.582-69 47-40.31 52.449-74.676 111.953-141 138l-4 5c17.729-.84 33.317-18.039 46-26 49.032-30.779 75.59-79.893 111-124zm-295 132c-14.146 6.466-31.722 11.043-45 15l-2 3c31.997-1.612 55.26-30.35 82 0h3c-2.03-17.124-18.18-18.962-38-18zM375 464c-31.044 16.896-49.763 60.819-71 88-9.606 12.295-25.762 25.126-30 42-5.277 21.012 15.387 31.181 27 36 80.304 33.328 96.636-28.792 110-89 7.635-34.399-6.471-76.163-36-77zm30 82c-10.304 38.372-18.546 96.371-72 86-14.724-2.856-28.008-4.387-39-11-7.748-4.661-19.546-14.569-14-29 7.287-18.963 26.325-33.559 38-49 18.043-23.865 32.271-58.963 59-74 26.522 4.729 36.104 46.819 28 77zm-1-104c-9.335-12.157-16.133-23.112-38-23-27.608 18.563-36.731 69.062-56 96-16.218 22.673-82.805 68.133-87 87-3.291 14.798 4.241 27.618 11 33 25.795 20.54 78.17 21.997 112 33 16.416 5.339 28.676 16.202 50 16 11.813-17.464 10.107-47.313 16-71 18.03-72.48 39.61-109-8-171zm4 166-12 68c-12.801 7.367-32.007-6.683-44-11-30.451-10.962-135.397-19.087-124-62 5.526-20.809 39.525-37.554 55-50 23.625-19.001 44.127-50.686 57-80 8.42-19.174 13.029-35.839 27-49 24.071.114 33.708 20.783 43 36 32.469 53.171 12.064 91.675-2 148zm567 337c-16.155-12.021-45.435-5.979-61 2-42.627 21.851-47.297 53.636-107 64-40.518 7.034-100.682 6.259-107-28-3.906-21.175 19.737-33.478 31-41 22.66-15.135 39.198-30.688 46-62 12.308-56.651-13.682-98.874-26-137-7.024-21.74-6.386-50.755 9-63 45.037-35.842 153.779 8.472 192-19 21.313-15.319 11.871-62.119 17-94 3.193-19.851-1.223-44.154-9-57-21.085-34.825-69.842-31.648-117-41-16.737-3.319-40.328-8.561-62-5-37.163 6.105-82.961 18.178-125 9-105.239-22.977-111.703-125.546-135-231-5.944-26.907-21.395-49.431-21-79 7.966-11.418 62.104-46.741 83-33 9.05 5.951 12.883 18.957 18 29 18.802 36.902 33.833 103.012 60 132 24.227 26.839 70.088 18.7 113 28 21.722 4.708 53.762 17.297 76 4 53.637-32.073-13.696-107.539-27-138-4.218-9.656-15.286-26.886-9-40 8.254-16.604 34.758-20.509 46-35 21.208-27.338 11.526-70.015 10-110h-5c.998 34.302 12.521 77.809-6 103-13.041 17.738-48.391 22.415-52 48-4.643 32.914 43.815 84.317 54 110 10.965 27.652.403 55.183-24 62-24.347 6.802-49.815-6.124-70-10-43.478-8.349-84.27-1.073-106-30-23.013-30.634-36.212-87.623-54-123-5.658-11.252-10.058-27.241-20-34-23.077-15.688-84.025 19.812-91 34-4.275 10.396 19.117 81.48 23 102 19.345 102.215 37.362 194.542 138 216 41.079 8.759 85.005-3.242 121-9 48.465-7.753 160.413 15.41 177 42 8.206 13.155 10.026 29.298 10 51-.036 28.975 1.075 83.831-17 96-9.844 6.627-33.366 7.205-48 5-44.845-6.757-117.65-7.095-143 13-15.542 12.319-18.412 43.187-11 67 12.312 39.554 39.157 82.522 26 139-3.834 16.46-12.522 32.926-24 42-16.562 13.094-60.191 27.683-52 63 7.808 33.666 65.213 35.773 107 29 69.147-11.208 66.411-40.339 113-65 15.261-8.078 43.451-13.857 58-1 17.507 15.471 4.111 50.888-7 62-25.033 25.035-58.951 10.481-94 24-30.051 11.591-43.134 46.932-74 58l-1 3h7c21.86-15.025 45.353-46.434 68-56 34.367-14.517 72.576 2.032 98-26 13.441-14.82 25.326-54.13 4-70zM424 830c63.631-1.413 34.289-117.825-15-120l-2 1c-15.629 26.897-3.712 108.394 17 119zm-13-115c12.303 2.586 19.389 12.545 26 21 24.479 31.304 29.455 65.524-7 89h-5c-15.009-13.345-29.118-84.389-14-110zm233 265c11.689-61.392 86.891-58.646 98-132 9.543-63.016-62.717-113.348-33-173 35.083-70.423 163.517-15.267 207-73 12.528-16.634 26.262-52.778 9-76-17.952-24.15-118.473-40.521-166-33-24.26 3.839-53.864 11.376-82 7-51.202-7.964-91.107-17.639-127-40-35.371-22.036-46.167-122.849-57-173-6.502-30.104-16.197-68.513-57-56-27.244 8.355-46.842 42.366-32 77 10.078 23.516 30.442 39.783 45 59l45 65c7.321 9.736 16.702 16.833 21 30 20.707 63.429-41.147 118.563-28 182 9.421 45.459 42.185 69.568 51 115 10.352 53.349-25.671 91.274-12 146 14.758 59.076 59.687 108.326 36 191l8 1c8.103-41.745 6.452-89.56-7-124-9.07-23.22-22.569-44.256-29-70-13.457-53.872 22.448-91.649 12-146-8.874-46.161-41.745-69.86-51-116-13.383-66.714 49.536-108.763 28-181-5.561-18.653-19.729-29.95-30-44l-37-54c-13.125-17.103-29.79-31.84-41-51-16.858-28.812-3.019-63.689 24-72 39.399-12.119 42.614 35.492 48 63 9.854 50.333 22.845 142.19 58 165 35.593 23.094 77.826 33.137 129 41 30.321 4.659 61.082-2.978 87-7 44.52-6.91 141.258 8.177 158 31 18.105 24.682-3.798 64.602-19 76-57.037 42.765-166.774-11.809-199 65-28.477 67.873 42.311 109.64 33 174-10.006 69.17-85.843 67.47-98 132-12.857 68.245 67.407 64.633 66 118h8c-.108-56.965-77.721-55.44-66-117zm16-403c-6.481-15.934-33.159-21.574-56-21-8.771 3.493-16.284 3.987-23 9-32.377 24.162-37.65 94.226 5 111 29.371 11.552 81.12-74.636 74-99zm-86 3c7.728-10.318 17.01-13.429 30-19 82.197-1.827 43.367 47.485 23 81-6.445 10.604-15.296 35.146-35 31-38.767-8.156-38.624-65.46-18-93zm-190 464c43.013-10.295 108.776 29.945 130-5 21.6-35.563-14.167-103.612-20-137-9.443-54.047 31.525-81.961 21-136-9.785-50.24-43.57-75.293-53-127-5.642-30.934 7.568-56.382 14-77 9.606-30.795 7.7-70.247-4-97-18.595-42.52-46.719-81.447-74-116-13.014-16.483-38.146-38.246-32-72 9.437-51.824 44.137-71.918 82-95l29-18c14.268-18.067-16.985-56.119-11-87 7.302-37.677 45.244-48.204 54-77h-5c-17.284 23.204-61.41 47.614-55 91 3.545 23.995 15.278 40.602 16 64-38.278 42.57-98.979 46.056-114 114-8.868 40.108 16.58 63.199 32 83 28.002 35.956 57.521 76.409 76 121 27.861 67.229-24.446 102.837-13 166 9.827 54.232 44.526 79.368 54 133 9.032 51.132-30.801 76.816-22 128 5.982 34.791 37.43 89.739 24 129-14.667 42.876-78.956 1.944-120 9-37.533 6.452-58.102 30.59-74 58v1h4c22.453-17.264 27.863-45.069 61-53zm24 40-25 10-1 3c15.99-.78 24.992-11.956 46-8 11.238 2.116 16.037 7.749 30 8-9.206-10.745-29.512-13.727-50-13zm217-315c-34.3 14.816-59.484 104.289-10 115 10.696 2.315 19.853-2.48 26-5 54.434-22.314 40.753-105.42-16-110zm18 104c-6.243 3.268-17.351 8.849-29 6-44.44-10.865-11.269-90.542 8-105 49.705-.005 68.784 73.987 21 99zm77-18c19.405-77.381-78.462-123.966-27-201 45.029-67.404 195.27-8.658 212-89 7.688-36.919-33.858-41.136-59-47-26.1-6.088-62.242-12.26-95-7l-64 6-54-6c-21.504-4.688-40.613-11.273-67-11-9.035 4.281-16.418 5.59-22 13-19.007 25.233-48.983 99.57-35 143 11.66 36.217 40.391 57.547 48 98 6.555 34.851-7.915 70.372-13 101-6.575 39.602 26.7 113.453 61 106 18.14-3.941 32.504-24.813 46-35 25.968-19.599 59.92-34.792 69-71zM602 957c-17.479-1.259-24.422-13.761-32-25-20.339-30.165-24.488-72.413-14-117 3.712-15.781 9.827-38.705 6-60-7.755-43.156-37.134-64.608-49-103-14.514-46.958 24.644-132.838 53-147 38.286-.039 68.057 10.382 104 16 27.126 4.24 56.592-1.509 79-5 31.586-4.921 66.644.542 92 6 24.147 5.198 66.282 7.999 59 43-11.32 54.41-78.536 36.203-136 46-34.45 5.873-61.855 17.989-77 43-47.391 78.26 43.361 123.763 29 197-6.897 35.173-84.524 88.274-114 106zm-422 84c-23.841 10.073-37.043 21.583-31 55l2 1h3c-3.259-23.601.813-43.608 20-50 31.563-10.515 43.775 19.57 35 40l-9 9v1h6c20.396-25.304 14.978-55.791-26-56zm-14-81c6.837-19.666-5.278-43.22-10-57-24.26-70.806-32.679-63.788-107-82L0 804v5l39 15c39.02 10.446 73.717 7.817 94 36 10.342 14.369 13.722 32.28 20 51 3.742 11.159 12.933 26.819 9 44-4.735 20.688-27.379 32.013-38 48-15.442 23.242-17.032 54.457-17 94h5c.322-37.135.975-66.646 15-89 10.745-17.128 31.981-27.812 39-48zm-46-88c-17.397-25.017-54.171-21.887-87-32L0 826c4.367 22.225 99.29 23.649 117 51 34.072 52.618-10.568 80.702-22 118-8.774 28.626-2.343 69.599-2 102h5c-.523-32.209-7.213-68.756 1-98 10.793-38.431 60.419-70.314 21-127zm184 101c12.351 5.622 18.947 18.169 29 26 21.801 16.981 145.294 44.531 158 4 10.587-33.775-10.953-71.556-16-102-8.782-52.979 36.347-75.59 26-132-9.132-49.786-43.258-73.679-53-124-12.786-66.042 40.448-105.55 10-176-15.033-34.782-37.478-67.918-60-96-16.819-20.971-48.477-35.719-55-66-3.341-15.51 3.725-30.807 7-41 9.397-29.247 22.662-53.905 44-71 12.729-10.198 28.241-19.949 38-33 16.56-22.146 4.042-62.021 13-94 9.216-32.903 44.163-46.447 51-68h-6c-16.369 21.495-39.947 33.624-49 63-8.034 26.068 3.441 69.077-10 91-9.449 15.411-27.094 25.858-41 37-26.827 21.494-44.617 58.408-52 99-6.903 37.949 26.546 56.498 43 73 31.294 31.387 60.157 75.164 77 120 22.549 60.026-26.712 101.342-15 163 10.046 52.887 44.975 76.583 54 131 8.091 48.786-34.917 72.757-27 122 4.546 28.274 25.072 71.011 17 101-9.903 36.792-129.496 11.802-150-4-11.133-8.58-17.936-22.147-32-28-13.295-5.532-34.336-2.965-44 4-9.657 6.959-7.29 23.53-1 32 27.821 37.464 62.974 14.22 33 83l-9 9v1h6c9.724-8.606 15.2-19.233 19-34 10.24-39.788-36.958-46.954-50-72 .784-21.102 27.515-25.959 45-18zM79 916c1.881-8.271-1.76-17.158-5-21L3 855l-2-2H0v5c17.352 18.746 61.343 23.007 73 46 8.374 21.439-29.642 39.54-24 71 7.315 40.79 29.148 71.75 29 122h5c-1.454-49.887-21.465-81.081-29-121-5.673-30.057 20.383-39.7 25-60zm128 93c-58.092-23.346-84.564 35.416-83 88h5c-3.061-45.23 11.068-78.742 49-86 42.276-8.09 106.749 52.631 65 83l-1 3c14.832-.604 25.372-22.006 20-39-6.617-20.935-35.124-41.013-55-49zm-195 11-9 4-3 2v5c37.606-14.333 60.968 24.582 61 65l1 1h5c-9.768-35.196-11.883-76.163-55-77zm1085 11c42.014-30.893 60.996-87.324 103-118 54.181-39.568 110.482-9.915 145-80 7.176-14.571 13.63-39.368 9-62-19.251-94.098-88.794-43.477-141-87l-36-50c-27.582-34.565-66.896-51.543-86-96-12.42-28.901-12.761-67.268-28-93-24.455-41.293-56.241-65.178-66-124-7.627-45.974 35.979-123.956 49-157 19.857-50.393-3.934-137.99 46-159l3-4V0c-10.318.563-11.295 4.546-17 9-36.858 28.773-17.571 68.756-28 122l-14 44c-13.97 32.119-51.629 104.001-43 153 9.642 54.753 41.917 78.983 65 118 15.562 26.305 16.219 65.271 29 95 19.616 45.628 60.763 63.282 89 99 13.08 16.545 22.13 39.352 39 52 14.717 11.034 30.973 11.064 54 15 51.881 8.867 73.208 22.661 82 74 3.142 18.343-4.257 35.5-9 47-27.932 67.722-95.798 44.394-147 83-39.801 30.009-58.583 83.408-98 114-13.63 10.578-68.409 42.49-87 18-7.574-36.75 15.095-84.219-8-114-50.825-65.541-150.387 59.732-207 22-9.739-39.878 14.372-88.913 6-137-5.202-29.878-19.127-49.175-27-75-5.508-18.07-1.736-37.317 10-46 51.123-37.821 137.642 30.898 194 20 77.326-14.952 21.12-72.663 12-114-5.588-25.326.863-58.644-7-82-17.587-52.24-67.049-48.793-125-61-19.466-4.1-43.419-12.29-69-8-39.21 6.575-83.276 22.395-128 13-71.317-14.981-86.458-70.733-107-136-7.702-24.472-26.158-102.488-11-133 12.598-25.359 42.091-9.292 53 6 23.886 33.481 28.706 92.002 63 115 26.302 17.638 69.933 13.261 105 23 22.929 6.368 49.961 24.859 80 16 11.57-3.413 22.113-9.755 30-17 67.235-61.755-25.812-105.497-16-161 5.199-29.412 26.563-46.416 35-74 9.937-32.485-1.76-68.987-4-100h-5c2.116 29.311 14.315 64.457 5 96-8.965 30.357-31.652 46.959-36 81-7.086 55.486 78.351 95.478 19 153-7.272 7.048-17.203 13.7-28 17-28.878 8.825-54.804-8.818-77-15-36.533-10.174-82.771-6.264-109-26-31.05-23.365-35.674-81.825-59-113-14.354-19.184-50.749-30.496-62 0-11.849 32.114 2.214 100.352 10 126 15.604 51.404 29.279 106.718 71 132 46.535 28.199 115.179 11.05 169 2 30.801-5.18 59.078 5.067 83 10 24.214 4.993 49.667 4.352 70 13 57.364 24.401 29.823 75.635 48 135l27 58c6.399 30.22-32.568 45.039-62 40-46.883-8.027-98.818-45.061-157-27-17.809 5.528-34.12 20.055-29 48 6.021 32.864 24.108 53.259 30 89 5.204 31.565-15.425 119.569-5 135 9.27 13.391 41.724 7.313 57 3 34.935-9.864 85.155-54.291 130-38 54.463 19.785 15.438 82.161 28 129 27.551 19.697 70.768-2.858 90-17zM118 221c31.896-7.079 71.578-94.645 53-137-10.297-23.476-36.769-30.948-72-30-32.712 13.345-64.386 16.464-76 50-16.556 47.805 45.041 128.088 95 117zM27 110c9.229-35.614 43.17-37.914 76-51 115.674-2.174 55.011 147.016 13 157-43.366 10.306-99.708-64.679-89-106zM116 0H85C57.884 14.38 21.155 14.968 0 35v4C37.566 32.627 63.611 2.743 115 2l1-2zM37 1 27 0 0 13v6L35 4l2-3zm59 166c37.979 10.059 54.869-68.089 7-66-9.894 4.218-18.516 6.65-24 15-12.423 18.915 1.281 46.836 17 51zm9-61c35.452-.284 23.855 55.589-5 56-33.985-13.144-21.155-44.3 5-56zm1332 911-64 10c-39.693 12.164-57.761 37.464-77 70 9.754-1.652 27.936-37.049 38-45 24.484-19.343 71.895-34.121 115-30l2 3c-2.116 18.953-26.13 49.535-34 72 4.209-1.009 38.171-64.268 38-75-5.056-3.488-8.554-5.278-18-5zM95 199c38.059 8.011 70.633-51.554 63-90-2.364-11.906-10.502-17.389-13-28-12.73-4.582-22.997-9.355-41-9-23.468 9.398-41.807 11.176-54 31-23.946 38.932 14.391 89.558 45 96zm-42-80c5.473-23.978 27.115-28.819 48-38 80.331-2.313 46.422 103.121 5 110-27.602 4.584-60.163-40.621-53-72zm1507 886c38.164-8.423 100.271 20.069 121-11 8.34-12.5 4.505-36.865 1-52-8.687-37.512-14.917-127.263-56-128-53.604 36.263-82.22 100.735-135 138-64.621 45.625-143.74 39.393-192 106-8.162 11.265-19.474 23.666-23 39h4c34.695-99.202 153.313-93.785 227-152l86-93c10.054-12.474 20.312-27.286 36-34 32.822 3.26 42.498 94.972 50 129 3.128 14.19 5.245 34.313-2 45-19.223 28.351-80.088 1.22-118 9-42.241 8.669-100.42 60.983-118 95v1c10.669-2.422 22.496-24.513 30-32 23.404-23.352 51.498-51.723 89-60zM0 120c-.604 49.816 51.063 99.087 85 117 11.805 6.23 39.254 21.189 56 9 11.054-8.046 15.412-26.414 21-40 11.558-28.102 47.467-100.542 26-138-14.624-25.518-48.404-33.072-90-32C63.564 50.258.002 55.338 0 101c10.845-10.494 15.23-23.963 28-33 40.534-28.685 147.652-47.138 161 20 6.949 34.95-26.572 103.75-37 128-5.615 13.059-10.708 33.231-33 29C59.999 233.8 16.016 177.298 2 121l-2-1zM214 3l1-2-83-1c9.834 9.159 68.623 7.298 82 3zm7 159c-9.467 19.611-16.878 52.828-2 73 11.885 16.113 38.758 29.824 59 37 47.604 16.876 56.577-33.443 72-59 16.659-27.606 49.032-43.101 62-73 5.992-13.816 2.993-28.161 6-47 8.135-50.973 8.387-69.827 49-89l2-3V0c-12.526.548-15.703 7.513-23 13-23.28 17.506-31.732 35.69-33 76-.61 19.397-.052 35.504-6 49-12.959 29.404-45.574 45.188-62 73-11.691 19.795-21.338 69.31-59 58-12.375-3.716-24.801-10.858-35-17-99.17-59.721 35.251-170.134 84-200 20.785-12.734 49.182-24.776 55-52h-5c-12.415 25.359-33.626 35.761-57 50-46.559 28.363-82.558 61.365-107 112zm283-70c48.325 11.571 77.388-82.098 143-33 30.746 23.007-11.817 51.652-17 80-4.254 23.267 6.047 44.668 11 61 15.936 52.545 24.938 96.979 94 97 25.951.008 76.83 4.997 89-10 14.208-17.509-3.164-42.75-10-55-18.684-33.48-40.86-61.366-62-92-6.635-9.615-22.139-25.178-18-41 11.074-21.441 52.066-9.773 79-16 34.292-7.929 35.232-40.612 35-83h-5c.231 31.568.591 65.312-21 75-31.175 13.988-78.185-5.162-94 24 .521 32.164 59.736 99.891 77 128 6.257 10.188 27.128 34.233 17 52-10.163 20.803-114.589 15.302-133 4-20.449-12.554-61.278-103.83-54-143 5.729-30.837 50.87-59.557 14-86-65.757-47.162-96.557 34.023-139 35-3.504-3.132-5.649-4.485-8-9 1.306-24.935 36.089-48.152 47-76V0h-4l-15 30c-12.224 16.221-46.239 35.005-26 62zm1078 882c32.346 5.595 60.964-.222 68-24 10.002-33.802-1.118-81.432-34-81-19.471 9.869-87.874 56.94-69 91 5.627 12.185 19.561 11.329 35 14zm38-98c21.207 5.283 33.422 47.745 22 74-7.454 17.135-30.903 20.983-56 17-12.754-2.024-27.199-1.26-32-11-12.394-30.605 46.656-71.408 66-80zM32 608c13.466 21.58 66.134 68.532 105 46 36.247-21.014-5.623-68.646 14-91 10.042-16.664 61.884-11.832 82-18 35.122-10.77 62.18-37.865 76-70 6.837-15.899 9.875-34.417 13-54l1-45c0-65.408-20.597-74.541-60-99-24.331-15.103-58.509-24.367-65-57-2.905-14.604 2.295-32.021 6-43 10.304-30.536 40.173-109.338 64-124 26.348-16.214 74.015-20.168 88-48l4-4-11-1c-20.923 27.381-64.725 28.85-92 50-21.113 16.371-60.886 115.94-67 151-10.401 59.64 79.184 87.291 110 113 27.297 22.773 16.491 119.104 4 151-6.536 16.688-17.179 33.24-29 45-15.625 15.544-36.107 25.668-62 31-22.357 4.604-50.968.296-66 12-26.936 20.972 26.019 107.486-37 98-37.56-5.654-66.143-33.201-79-64-7.902-18.929-11.386-46.31-31-53 .275 16.759 11.879 22.484 17 35 5.686 13.896 7.712 27.32 15 39zM358 81l-19 10c-13.435 10.05-21.392 26.907-36 36-21.068 13.113-45.366 17.682-59 38-14.263 21.255-12.344 54.046 7 68 62.831 45.324 71.831-47.038 92-77 10.58-15.717 30.211-22.113 37-42 6.894-20.195-2.603-33.6-22-33zm10 5 6 5c8.063 34.363-20.524 41.46-34 60-21.853 30.064-27.996 121.281-88 76-14.403-10.869-16.466-37.504-6-55 13.654-22.826 38.801-26.54 61-41 19.899-12.962 30.331-31.213 53-45h8zM313 0h-30c4.318 6.681 25.304 5.139 30 0zm917 985-12-1c-13.729 10.321-28.719 21.399-25 46l7 3c17.2-5.137 40.83-25.835 30-48zm-10 3h6c8.254 17.076-11.599 35.189-23 40l-6-1c-3.315-20.241 12.666-29.105 23-39zM65 448c10.283 8.076 129.348 37.506 150 34 15.66-2.658 29.138-9.543 37-20 41.482-55.172-3.149-146.247-70-145-41.61 18.272-45.668 33.612-76 58l-34 27c-11.075 10.23-25 31.864-7 46zm26-53c32.387-25.279 50.994-54.883 92-73 65.626-.949 102.544 89.694 62 140-6.204 7.698-18.433 12.847-30 15-14.768 2.749-127.728-22.127-139-28-6.743-3.513-11.567-9.976-15-17 .819-20.681 17.849-27.515 30-37zm129 68c57.775-17.601 33.25-129.598-35-128-30.751 13.828-73.7 44.292-81 79-5.963 28.351 83.003 59.052 116 49zm-31-120c41.441 1.86 74.442 65.889 44 102-22.55 26.749-112.231-4.288-121-26 12.087-37.305 41.73-61.041 77-76zm1054 590c-20.631 10.621-37.402 15.057-51 32-31.19 38.864-52.927 102.883-100 125l-5 6v1c10.639-1.034 13.451-8.053 20-13 10.651-8.048 22.021-16.378 30-27 27.861-37.086 65.988-141.596 136-115 10.566 17.774-1.919 36.686-9 51-13.482 27.255-30.081 47.707-48 70-9.384 11.674-22.303 19.3-30 33v1h4c31.089-27.624 64.177-67.023 82-107 13.961-31.313 19.895-58.297-29-57zM125 484c52.427 8.742 116.034 30.341 143-17 42.841-75.213-14.103-167.967-90-170-9.576 3.916-18.242 4.047-26 9-28.938 18.474-46.552 50.669-77 69-19.309 11.625-53.307 17.25-63 38-9.192 19.678 14.043 43.926 23 51 27.298 21.561 47.569 12.925 90 20zM17 416c6.882-17.845 36.813-22.838 53-32 39.795-22.525 61.135-59.697 102-81 70.367-.951 92.129 41.327 102 102 3.937 24.196-3.348 48.532-13 63-27.619 41.399-86.801 18.311-134 11-39.214-6.074-64.43-.449-88-19-8.468-6.665-28.399-27.408-22-44zm65 125c18.62-3.602 33.2-12.529 55-16l72 6c59.721-9.429 86.697-39.902 97-98 13.254-74.743-21.616-123.998-63-149-21.83-13.188-56.237-21.326-64-48-16.864-57.95 71.063-138.956 26-192-10.077-11.862-30.065-15.968-47-21-15.142-4.499-33.054-6.472-54-6l-37 7C42.564 31.6 19.022 44.446 0 54v6l39-20c39.925-17.275 95.17-22.995 138-5 16.707 7.02 29.854 13.827 34 33 12.119 56.046-53.258 117.15-37 170 10.052 32.677 57.651 43.801 83 62 31.691 22.752 37.252 51.857 45 100 10.326 64.166-34.416 115.779-81 125-30.033 5.945-55.924-9.953-86-5-20.262 3.337-51.033 20.944-70 15-26.003-8.148-42.009-30.438-64-43H0v5c11.613 12.672 55.75 49.078 82 44zm-67-64c19.36 14.903 42.169 35.364 82 29 13.545-2.164 28.815-4.539 44-2 22.279 3.725 48.435 15.103 74 11 51.411-8.25 89.053-49.729 78-118-10.447-64.527-34.562-91.837-88-113-12.507-4.953-36.566-18.606-56-11-16.926 6.625-26.441 34.182-37 48-24.716 32.345-57.611 48.552-112 52v5c53.796-.44 90.457-20.274 114-51 10.212-13.328 21.12-42.34 37-49 16.386-6.872 39.197 5.586 50 10 46.372 18.944 73.762 40.92 85 95 14.334 68.981-16.894 118.168-71 127-24.726 4.036-50.519-7.508-72-11-28.574-4.645-55.825 6.915-81 0-26.917-7.393-40.846-32.047-62-39 1.114 10.6 8.525 12.016 15 17zm669 303c-26.76-45.378-47.428-81.047-13-136 18.204-29.057 44.102-42.042 85-49 37.969-6.46 99.809 6.669 107-29 4.961-24.609-35.917-29.332-54-33-37.338-7.575-76.403 5.331-113 3l-105-12c-9.311 3.624-17.945 2.825-25 8-26.507 19.444-54.081 83.188-36 127 12.733 30.854 41.109 48.655 48 85l-2 36c-8.872 42.346-25.521 105.362 10 132 5.827 4.37 13.798 10.241 26 8 16.84-3.093 30.675-12.071 43-20 14.487-9.32 30.01-18.345 39-33 17.09-27.86 2.423-65.934-10-87zm-83 135c-66.168-14.007-9.654-122.842-18-170-7.076-39.98-36.743-58.15-50-92-14.472-36.951 14.923-100.944 35-116 5.781-4.335 12.701-4.783 20-8 33.446.027 60.763 6.349 91 11 55.881 8.596 152.37-26.057 179 20-2.142 34.416-50.186 23.894-83 29-44.09 6.86-76.063 10.229-98 38l-23 40c-27.571 68.268 32.811 103.885 43 158 7.921 42.071-60.921 97.426-96 90zM101 307c3.184-7.692 6.106-20.992 2-31-6.472-15.774-25.144-26.125-38-36-23.488-18.042-50.051-46.126-62-75l-2-1H0c.579 13.035 6.601 17.218 12 25 10.665 15.373 20.631 31.476 35 43 15.502 12.434 40.668 26.018 50 44 16.837 32.446-24.342 62.801-45 70-14.624 5.096-34.155 3.675-52 3v5c52.479 3.958 85.966-10.673 101-47zm-24-25c-12.834-36.155-57.831-53.077-73-89l-3-2H0c1.814 35.631 60.712 61.763 72 93 14.735 40.778-38.682 47.77-72 45v5c36.217 7.53 92.787-7.529 77-52zm1250 815h5c4.826-18.838 27.648-28.832 48-24 4.364 6.262 7.056 12.932 7 24h5c-3.706-13.977-3.451-20.786-12-29-25.14-5.247-48.884 10.285-53 29zM41 297c6.55-34.821-26.558-52.738-37-76l-3-2H0c1.528 20.068 48.911 59.046 34 77-4.893 8.842-19.782 10.645-34 10v5c21.573.417 31.182-3.252 41-14zm1514 794-14 4-1 2h44v-1c-5.842-5.392-17.26-5.516-29-5z"/></svg>